<?xml version="1.0" encoding="UTF-8"?>
<svg version="1.1" xmlns="http://www.w3.org/2000/svg" width="150" height="150">
<path d="M0 0 C6.55972096 1.84886361 13.13737863 3.59677749 19.74609375 5.26171875 C21.40110758 5.68268365 23.05605551 6.10390774 24.7109375 6.52539062 C27.22833763 7.16626903 29.74649881 7.80270253 32.26806641 8.42700195 C34.76417424 9.04663853 37.25526035 9.68375614 39.74609375 10.32421875 C40.50018524 10.50662613 41.25427673 10.68903351 42.03121948 10.87696838 C46.35426973 12.00801519 49.16819693 13.06188885 51.81640625 16.7265625 C52.9855957 19.68969727 52.9855957 19.68969727 53.9296875 23.16796875 C54.10501511 23.80011795 54.28034271 24.43226715 54.46098328 25.08357239 C55.03003662 27.1487454 55.57962699 29.21855111 56.12890625 31.2890625 C56.51915219 32.72049607 56.91043927 34.15164619 57.30273438 35.58251953 C60.20390128 46.21759955 62.98704247 56.88712012 65.6965332 67.57250977 C65.96296631 68.62108154 66.22939941 69.66965332 66.50390625 70.75 C66.85001953 72.12551025 66.85001953 72.12551025 67.203125 73.52880859 C67.74650562 75.74538808 67.74650562 75.74538808 68.81640625 77.7265625 C69.16015625 79.828125 69.16015625 79.828125 69.31640625 82.3515625 C69.38859375 83.16882813 69.46078125 83.98609375 69.53515625 84.828125 C67.54862754 92.83901796 57.90964184 99.77958482 52.234375 105.44140625 C51.33898514 106.33775284 50.44359528 107.23409943 49.52107239 108.15760803 C47.64229849 110.03705852 45.76256634 111.91548437 43.88110352 113.79223633 C41.46898852 116.19860526 39.06145818 118.60950374 36.65519238 121.02171993 C34.35067602 123.33070683 32.04236665 125.63589394 29.734375 127.94140625 C28.869832 128.80797348 28.005289 129.67454071 27.11454773 130.56736755 C25.91738884 131.7597982 25.91738884 131.7597982 24.69604492 132.97631836 C23.99323898 133.6783287 23.29043304 134.38033905 22.56632996 135.10362244 C19.25449785 138.17513064 16.44506986 138.1201758 12.08203125 138.0703125 C5.67018085 137.39538088 -0.45677006 135.31635487 -6.61523438 133.47949219 C-11.11897503 132.15919407 -15.65276007 130.94991527 -20.18359375 129.7265625 C-22.03660418 129.22188937 -23.8894698 128.71668421 -25.7421875 128.2109375 C-28.43877237 127.47519965 -31.13541006 126.73967202 -33.83251953 126.00585938 C-36.30453545 125.33239801 -38.77544512 124.65502019 -41.24609375 123.9765625 C-42.3434082 123.67878906 -42.3434082 123.67878906 -43.46289062 123.375 C-45.3759878 122.84749823 -47.28029486 122.2883919 -49.18359375 121.7265625 C-50.57384766 121.34757812 -50.57384766 121.34757812 -51.9921875 120.9609375 C-56.0794187 118.65868249 -57.0355095 114.23766452 -58.28686523 109.91870117 C-58.63364369 108.49578581 -58.9725341 107.07093145 -59.3046875 105.64453125 C-59.5837368 104.48586296 -59.5837368 104.48586296 -59.86842346 103.30378723 C-60.45953316 100.84213286 -61.04045544 98.37820531 -61.62109375 95.9140625 C-62.0064953 94.30257491 -62.39255794 92.69124528 -62.77929688 91.08007812 C-64.3051068 84.70782487 -65.81469792 78.33200582 -67.28955078 71.94775391 C-67.46712418 71.18263992 -67.64469757 70.41752594 -67.82765198 69.62922668 C-68.16023595 68.1941784 -68.49044721 66.75857711 -68.81773376 65.3223114 C-69.51348995 62.32285971 -70.28876915 59.41122652 -71.26342773 56.48901367 C-72.49663089 52.78678663 -73.11327443 49.52821659 -72.18359375 45.7265625 C-70.92288208 43.90634155 -70.92288208 43.90634155 -69.22705078 42.06005859 C-68.58938782 41.3632196 -67.95172485 40.66638062 -67.29473877 39.94842529 C-63.55051029 36.00783293 -59.75954246 32.11918002 -55.92578125 28.265625 C-55.05970245 27.39384613 -54.19362366 26.52206726 -53.30130005 25.62387085 C-51.48236924 23.79555026 -49.66202443 21.96863543 -47.84033203 20.14306641 C-45.0529962 17.3459453 -42.27650235 14.53833847 -39.5 11.73046875 C-37.72591914 9.94986428 -35.95120166 8.16989382 -34.17578125 6.390625 C-32.9350032 5.13132675 -32.9350032 5.13132675 -31.66915894 3.84658813 C-30.89130035 3.07173065 -30.11344177 2.29687317 -29.31201172 1.49853516 C-28.63363251 0.81651031 -27.9552533 0.13448547 -27.25631714 -0.56820679 C-19.19452126 -7.20065085 -8.99752372 -2.56855048 0 0 Z " fill="#2638A3" transform="translate(76.18359375,10.2734375)"/>
<path d="M0 0 C1.23314941 0.36641602 2.46629883 0.73283203 3.73681641 1.11035156 C4.93105225 1.21645752 4.93105225 1.21645752 6.14941406 1.32470703 C8.29387347 1.64221872 9.8464221 2.03212666 11.73681641 3.11035156 C13.56176649 5.96539142 14.30691742 8.9663753 15.11181641 12.23535156 C15.46179688 13.48058594 15.46179688 13.48058594 15.81884766 14.75097656 C16.497073 17.19565321 17.12034232 19.64948354 17.73681641 22.11035156 C17.93694336 22.84479492 18.13707031 23.57923828 18.34326172 24.3359375 C20.4204369 32.08078158 20.4204369 32.08078158 19.73681641 35.11035156 C17.19206067 38.26393613 14.00214602 40.79224286 10.93754578 43.42353821 C6.66514893 47.177896 2.96874979 50.95222338 -0.47216797 55.48803711 C-6.79933339 63.45692509 -13.01708963 70.87505249 -23.41452503 72.56461525 C-32.78812231 73.6096972 -42.22703656 73.10074712 -51.61804199 72.55230713 C-55.75979996 72.33414122 -59.9043996 72.24089105 -64.05029297 72.13574219 C-72.12885568 71.91309981 -80.19390137 71.55679975 -88.26318359 71.11035156 C-90.38101172 66.26742757 -92.08714444 61.61560233 -93.45068359 56.48535156 C-93.79486328 55.21433594 -94.13904297 53.94332031 -94.49365234 52.63378906 C-95.15588063 49.60165752 -95.32790805 47.1783564 -95.26318359 44.11035156 C-94.0343042 44.3052417 -92.8054248 44.50013184 -91.53930664 44.70092773 C-74.82722085 47.07561328 -55.15969082 49.46067472 -40.8984375 38.82666016 C-32.36716298 31.83150857 -25.02601323 23.58712323 -17.82446289 15.26733398 C-16.9680571 14.28082352 -16.11165131 13.29431305 -15.22929382 12.27790833 C-13.619498 10.38872225 -12.04098272 8.47229811 -10.49958801 6.52690125 C-4.65770694 -0.55831564 -4.65770694 -0.55831564 0 0 Z " fill="#3F59F1" transform="translate(109.26318359375,26.8896484375)"/>
<path d="M0 0 C1.32 0 2.64 0 4 0 C4.86838824 2.72535688 5.71992619 5.45416373 6.5625 8.1875 C6.9327832 9.34088867 6.9327832 9.34088867 7.31054688 10.51757812 C7.53935547 11.26845703 7.76816406 12.01933594 8.00390625 12.79296875 C8.21861572 13.4789917 8.4333252 14.16501465 8.65454102 14.87182617 C9.09743432 17.60023675 8.77599405 19.33723851 8 22 C6.24539185 24.32310486 6.24539185 24.32310486 3.93017578 26.73022461 C3.06482208 27.63723618 2.19946838 28.54424774 1.30789185 29.47874451 C0.35489788 30.45445027 -0.59932689 31.42895517 -1.5546875 32.40234375 C-2.03650608 32.89671999 -2.51832466 33.39109623 -3.0147438 33.90045357 C-5.56443781 36.51585262 -8.12573275 39.11921161 -10.69726562 41.71313477 C-13.34414761 44.38754294 -15.94920479 47.09909295 -18.54655266 49.82150936 C-20.55804456 51.91523611 -22.59820043 53.97918269 -24.64709854 56.03625679 C-25.62042545 57.0234862 -26.5829087 58.02153548 -27.53371811 59.03046989 C-34.95605203 66.87466838 -34.95605203 66.87466838 -39.93786621 67.18014526 C-42.76978867 66.68691293 -45.29287929 65.95585314 -48 65 C-49.76229944 64.55434496 -51.52761979 64.12031047 -53.296875 63.703125 C-55.1157305 63.22307565 -56.93341004 62.7385526 -58.75 62.25 C-60.75512142 61.71712078 -62.76033258 61.18457911 -64.765625 60.65234375 C-65.78720703 60.38019043 -66.80878906 60.10803711 -67.86132812 59.82763672 C-71.02311072 58.99390593 -74.18992754 58.18297069 -77.359375 57.37890625 C-78.38836914 57.11625977 -79.41736328 56.85361328 -80.47753906 56.58300781 C-82.4420055 56.08221168 -84.40745505 55.58525081 -86.37402344 55.09277344 C-91.47739867 53.78257118 -96.31480923 52.44149123 -101 50 C-102.875 46.5 -102.875 46.5 -104 43 C-104.495 41.515 -104.495 41.515 -105 40 C-105.03954234 37.66700175 -105.04401732 35.33291811 -105 33 C-104.15651001 33.05853149 -103.31302002 33.11706299 -102.44396973 33.17736816 C-91.80149774 33.87562748 -81.1637169 34.30539973 -70.5 34.5 C-69.23964621 34.52327299 -69.23964621 34.52327299 -67.95383072 34.54701614 C-40.90612932 35.20156877 -40.90612932 35.20156877 -17.80703735 22.68045044 C-11.85828492 16.71478613 -6.7650241 10.00896655 -2.2331543 2.92163086 C-1.12774292 1.47542358 -1.12774292 1.47542358 0 0 Z " fill="#617BF4" transform="translate(129,74)"/>
<path d="M0 0 C1.22090332 0.38623535 2.44180664 0.7724707 3.69970703 1.17041016 C4.66473145 1.37915771 5.62975586 1.58790527 6.62402344 1.80297852 C7.94926025 2.15307983 7.94926025 2.15307983 9.30126953 2.51025391 C10.28611328 2.76871094 11.27095703 3.02716797 12.28564453 3.29345703 C13.28853516 3.56222656 14.29142578 3.83099609 15.32470703 4.10791016 C16.33533203 4.3728125 17.34595703 4.63771484 18.38720703 4.91064453 C23.21385504 6.18698256 27.98880238 7.50631926 32.69970703 9.17041016 C30.21580142 22.2328632 12.23534923 37.00767506 2.25 44.79980469 C-11.85989335 54.39686202 -32.36507761 50.64583624 -48.30029297 48.17041016 C-48.30029297 43.38044179 -47.61644033 42.96746464 -44.38818359 39.66137695 C-43.53309204 38.7775383 -42.67800049 37.89369965 -41.79699707 36.983078 C-40.85106777 36.02771419 -39.90422657 35.07325254 -38.95654297 34.11962891 C-37.98899105 33.13668183 -37.02166842 32.15350901 -36.05456543 31.17012024 C-34.02394677 29.11103413 -31.98496247 27.06064674 -29.94091797 25.01489258 C-27.32693965 22.39573505 -24.74415468 19.74799673 -22.1680069 17.09169292 C-20.17922054 15.05084068 -18.17031858 13.03073183 -16.15531921 11.01578712 C-15.1943241 10.04823715 -14.24066961 9.0733371 -13.29475403 8.09103966 C-4.94902895 -0.54770148 -4.94902895 -0.54770148 0 0 Z " fill="#617BF4" transform="translate(60.30029296875,13.82958984375)"/>
<path d="M0 0 C6.41736976 -0.33348846 12.8324646 -0.55880066 19.2565918 -0.71411133 C21.43452379 -0.77892978 23.61190272 -0.86723003 25.7878418 -0.98071289 C45.79308454 -1.99683761 45.79308454 -1.99683761 53.72544861 4.45832825 C56.09959308 6.66415672 58.3175056 8.96400802 60.4768219 11.3795166 C62.87156092 13.92723891 65.55269412 15.98186672 68.3125 18.125 C71.16555911 20.38527105 72.96742811 21.95114216 75 25 C51.9 25 28.8 25 5 25 C0 7 0 7 0 0 Z " fill="#627CF5" transform="translate(15,72)"/>
<path d="M0 0 C0.86838824 2.72535688 1.71992619 5.45416373 2.5625 8.1875 C2.9327832 9.34088867 2.9327832 9.34088867 3.31054688 10.51757812 C3.53935547 11.26845703 3.76816406 12.01933594 4.00390625 12.79296875 C4.21861572 13.4789917 4.4333252 14.16501465 4.65454102 14.87182617 C5.09771346 17.60195633 4.78240906 19.3373576 4 22 C2.21606445 24.27168274 2.21606445 24.27168274 -0.13671875 26.60668945 C-1.45313354 27.9274926 -1.45313354 27.9274926 -2.79614258 29.27497864 C-3.75964295 30.22137019 -4.72343571 31.16746415 -5.6875 32.11328125 C-6.6709662 33.09182238 -7.65362128 34.07117934 -8.63549805 35.05131531 C-10.69081365 37.09900268 -12.7524055 39.14006349 -14.81933594 41.17602539 C-17.47454646 43.79153126 -20.11875412 46.41781289 -22.75901794 49.04839802 C-25.27331798 51.55275073 -27.79256649 54.05209903 -30.3125 56.55078125 C-31.03703873 57.27022635 -31.03703873 57.27022635 -31.7762146 58.0042057 C-33.13584554 59.35231832 -34.49946087 60.69640899 -35.86328125 62.0402832 C-37.02790894 63.19014458 -37.02790894 63.19014458 -38.21606445 64.36323547 C-40 66 -40 66 -41 66 C-41.125 59.375 -41.125 59.375 -40 56 C-39.81320108 54.66422446 -39.66139156 53.32332197 -39.53515625 51.98046875 C-39.45716797 51.20509766 -39.37917969 50.42972656 -39.29882812 49.63085938 C-39.14243498 48.01393525 -38.98874768 46.39674691 -38.83789062 44.77929688 C-38.75861328 44.00005859 -38.67933594 43.22082031 -38.59765625 42.41796875 C-38.53070557 41.71438232 -38.46375488 41.0107959 -38.39477539 40.28588867 C-37.14383951 33.04252895 -34.03628285 29.44415292 -28.9453125 24.4140625 C-28.24735565 23.71227875 -27.5493988 23.010495 -26.83029175 22.28744507 C-25.35743265 20.81187152 -23.87954008 19.34130717 -22.39697266 17.87548828 C-20.12570893 15.62570223 -17.87663863 13.35530046 -15.62890625 11.08203125 C-14.1939897 9.64975679 -12.75783342 8.21872303 -11.3203125 6.7890625 C-10.64727081 6.10792389 -9.97422913 5.42678528 -9.28079224 4.7250061 C-8.64688568 4.10370819 -8.01297913 3.48241028 -7.35986328 2.84228516 C-6.80630157 2.29190582 -6.25273987 1.74152649 -5.68240356 1.17446899 C-4 0 -4 0 0 0 Z " fill="#3E58F1" transform="translate(133,74)"/>
<path d="M0 0 C9.00573301 1.12571663 9.00573301 1.12571663 13.6015625 2.33984375 C15.07882813 2.7275293 15.07882813 2.7275293 16.5859375 3.12304688 C17.58882812 3.39181641 18.59171875 3.66058594 19.625 3.9375 C21.1409375 4.33485352 21.1409375 4.33485352 22.6875 4.74023438 C27.51414801 6.0165724 32.28909535 7.33590911 37 9 C36.41646203 12.46916663 35.25812211 14.11340373 32.78125 16.57519531 C32.10384766 17.25559875 31.42644531 17.9360022 30.72851562 18.63702393 C29.99310547 19.36008728 29.25769531 20.08315063 28.5 20.828125 C27.74912109 21.57713074 26.99824219 22.32613647 26.22460938 23.09783936 C24.63760987 24.67811917 23.04701802 26.25479834 21.453125 27.828125 C19.00258177 30.24745111 16.56292889 32.67734432 14.125 35.109375 C12.5839561 36.64125174 11.04231 38.17252298 9.5 39.703125 C8.76458984 40.43428528 8.02917969 41.16544556 7.27148438 41.91876221 C6.59408203 42.58655701 5.91667969 43.25435181 5.21875 43.94238281 C4.3205957 44.8302951 4.3205957 44.8302951 3.40429688 45.73614502 C2 47 2 47 1 47 C0.67 31.49 0.34 15.98 0 0 Z " fill="#3F59F2" transform="translate(56,14)"/>
<path d="M0 0 C0 0.33 0 0.66 0 1 C-0.59167969 1.01417969 -1.18335938 1.02835938 -1.79296875 1.04296875 C-2.58316406 1.09066406 -3.37335937 1.13835938 -4.1875 1.1875 C-4.96480469 1.22230469 -5.74210937 1.25710938 -6.54296875 1.29296875 C-9.31272013 2.08998783 -10.40316418 3.29275528 -12.36482239 5.32557678 C-14.36732135 7.37613737 -16.43102992 9.35582366 -18.49902344 11.34033203 C-22.7453519 15.42678592 -26.96964238 19.53510384 -31.17835617 23.66023445 C-33.71529198 26.14495029 -36.26076265 28.6194373 -38.82763672 31.07324219 C-41.32608804 33.46240032 -43.79871277 35.8757555 -46.25598907 38.30721664 C-47.64012839 39.664189 -49.04931915 40.99545773 -50.45892334 42.32595825 C-55.81439378 47.67663984 -58.03777035 51.28586672 -58.10919189 58.95602417 C-58.07315857 59.63053619 -58.03712524 60.30504822 -58 61 C-60.1706501 57.02779821 -61.05603704 53.46753243 -60 49 C-58.73928833 47.16757202 -58.73928833 47.16757202 -57.04345703 45.32568359 C-56.40579407 44.62997253 -55.7681311 43.93426147 -55.11114502 43.21746826 C-51.36380631 39.28140296 -47.57516685 35.39183162 -43.7421875 31.5390625 C-42.8761087 30.66728363 -42.01002991 29.79550476 -41.1177063 28.89730835 C-39.29877549 27.06898776 -37.47843068 25.24207293 -35.65673828 23.41650391 C-32.86940245 20.6193828 -30.0929086 17.81177597 -27.31640625 15.00390625 C-25.54232539 13.22330178 -23.76760791 11.44333132 -21.9921875 9.6640625 C-20.75140945 8.40476425 -20.75140945 8.40476425 -19.48556519 7.12002563 C-18.7077066 6.34516815 -17.92984802 5.57031067 -17.12841797 4.77197266 C-16.45003876 4.08994781 -15.77165955 3.40792297 -15.07272339 2.70523071 C-9.98263627 -1.48238686 -6.13083068 -1.03912384 0 0 Z " fill="#3B4CA3" transform="translate(64,7)"/>
<path d="M0 0 C0 0.33 0 0.66 0 1 C-0.59167969 1.01417969 -1.18335937 1.02835938 -1.79296875 1.04296875 C-6.1797598 1.30775059 -8.39494321 1.50017048 -11.875 4.375 C-12.57625 5.24125 -13.2775 6.1075 -14 7 C-15.7305436 8.87475557 -17.0524053 10.02955052 -19.29296875 11.29296875 C-22.22834534 13.14399266 -24.39838409 15.20132093 -26.8125 17.6875 C-27.99779297 18.89986328 -27.99779297 18.89986328 -29.20703125 20.13671875 C-30.09455078 21.05904297 -30.09455078 21.05904297 -31 22 C-31.66 21.67 -32.32 21.34 -33 21 C-30.25303555 18.17858689 -27.49609157 15.3673482 -24.72973633 12.56494141 C-23.33077515 11.14356793 -21.93974164 9.71440589 -20.54882812 8.28515625 C-19.66259766 7.38925781 -18.77636719 6.49335938 -17.86328125 5.5703125 C-17.05157471 4.74289551 -16.23986816 3.91547852 -15.40356445 3.06298828 C-10.17124334 -1.42793233 -6.42589953 -1.08913551 0 0 Z " fill="#4858A5" transform="translate(64,7)"/>
<path d="M0 0 C2.45993942 2.45993942 2.34992473 3.35001885 2.4375 6.75 C2.387829 10.55811029 1.97210811 12.69768785 -0.5 15.625 C-1.325 16.40875 -2.15 17.1925 -3 18 C-3.33 17.01 -3.66 16.02 -4 15 C-3.34 15 -2.68 15 -2 15 C-1.080898 11.75611057 -0.71720745 8.60648937 -0.4375 5.25 C-0.31181641 3.77273437 -0.31181641 3.77273437 -0.18359375 2.265625 C-0.12300781 1.51796875 -0.06242188 0.7703125 0 0 Z " fill="#4151A3" transform="translate(143,86)"/>
<path d="M0 0 C1.43836751 0.11458693 2.87570966 0.24209116 4.3125 0.375 C5.51326172 0.47941406 5.51326172 0.47941406 6.73828125 0.5859375 C9 1 9 1 12 3 C4.61538462 3.36923077 4.61538462 3.36923077 1.5 1.5 C1.005 1.005 0.51 0.51 0 0 Z " fill="#4B5AAA" transform="translate(104,19)"/>
<path d="M0 0 C1.45922693 0.11409593 2.91740598 0.24165544 4.375 0.375 C5.59316406 0.47941406 5.59316406 0.47941406 6.8359375 0.5859375 C9 1 9 1 11 3 C4.6 3.36923077 4.6 3.36923077 1.5625 1.5 C1.046875 1.005 0.53125 0.51 0 0 Z " fill="#4452A5" transform="translate(93,16)"/>
</svg>
